<svg id="consulting" xmlns="http://www.w3.org/2000/svg" width="24" height="24" viewBox="0 0 24 24">
  <rect id="Rectangle_2213" data-name="Rectangle 2213" width="24" height="24" fill="none"/>
  <g id="technology" transform="translate(3 3)">
    <path id="Path_1567" data-name="Path 1567" d="M13.25,14.938v3.75L17,20.375V13.25Z" transform="translate(-3.312 -3.312)" fill="#b4b6bc"/>
    <path id="Path_1568" data-name="Path 1568" d="M9,12.75H1.875A1.123,1.123,0,0,0,.75,13.875V19.5a1.123,1.123,0,0,0,1.125,1.125H9A1.123,1.123,0,0,0,10.125,19.5V13.875A1.123,1.123,0,0,0,9,12.75Z" transform="translate(-0.188 -3.188)" fill="#62708d"/>
    <path id="Path_1569" data-name="Path 1569" d="M15.247,7.875a.48.48,0,0,1-.176-.033.486.486,0,0,1-.31-.453V5.932h-.81A1.135,1.135,0,0,1,12.818,4.8V1.883A1.135,1.135,0,0,1,13.951.75h5.506A1.135,1.135,0,0,1,20.59,1.883V4.8a1.135,1.135,0,0,1-1.133,1.133H17.242L15.6,7.717a.479.479,0,0,1-.357.158Z" transform="translate(-3.205 -0.188)" fill="#b4b6bc"/>
    <path id="Path_1570" data-name="Path 1570" d="M8.813,21H1.688A1.69,1.69,0,0,1,0,19.313V13.688A1.69,1.69,0,0,1,1.688,12H8.813A1.69,1.69,0,0,1,10.5,13.688v5.625A1.69,1.69,0,0,1,8.813,21ZM1.688,13.125a.564.564,0,0,0-.562.563v5.625a.564.564,0,0,0,.563.563H8.813a.564.564,0,0,0,.563-.562V13.688a.564.564,0,0,0-.563-.562Z" transform="translate(0 -3)" fill="#2c2e43"/>
    <path id="Path_1571" data-name="Path 1571" d="M16.812,20.75a.554.554,0,0,1-.231-.049l-3.75-1.687a.562.562,0,1,1,.461-1.025l2.957,1.33V13.932l-2.956,1.33a.562.562,0,1,1-.461-1.025l3.75-1.687a.562.562,0,0,1,.793.513v7.125a.562.562,0,0,1-.562.563Z" transform="translate(-3.125 -3.125)" fill="#2c2e43"/>
    <path id="Path_1572" data-name="Path 1572" d="M14.813,8.25a.563.563,0,0,1-.562-.562V6h-.937A1.314,1.314,0,0,1,12,4.688V1.313A1.314,1.314,0,0,1,13.313,0h6.375A1.314,1.314,0,0,1,21,1.313V4.688A1.314,1.314,0,0,1,19.688,6H17.122l-1.9,2.068A.563.563,0,0,1,14.813,8.25Zm-1.5-7.125a.188.188,0,0,0-.187.188V4.688a.188.188,0,0,0,.188.187h1.5a.563.563,0,0,1,.563.563v.8L16.46,5.057a.563.563,0,0,1,.415-.182h2.813a.188.188,0,0,0,.188-.188V1.313a.188.188,0,0,0-.187-.187Z" transform="translate(-3)" fill="#2c2e43"/>
    <path id="Path_1573" data-name="Path 1573" d="M15.313,4.375A.538.538,0,0,1,15.1,4.33a.582.582,0,0,1-.18-.12.561.561,0,0,1,0-.795.475.475,0,0,1,.18-.12.548.548,0,0,1,.435,0,.475.475,0,0,1,.18.12.561.561,0,0,1,0,.795.582.582,0,0,1-.18.12A.565.565,0,0,1,15.313,4.375Z" transform="translate(-3.687 -0.813)" fill="#2c2e43"/>
    <path id="Path_1574" data-name="Path 1574" d="M17.813,4.375a.562.562,0,0,1-.4-.165.475.475,0,0,1-.12-.18.557.557,0,0,1,.12-.615.582.582,0,0,1,.18-.12.562.562,0,0,1,.78.517.538.538,0,0,1-.045.217.552.552,0,0,1-.3.3A.538.538,0,0,1,17.813,4.375Z" transform="translate(-4.313 -0.813)" fill="#2c2e43"/>
    <path id="Path_1575" data-name="Path 1575" d="M20.313,4.378a.565.565,0,0,1-.217-.045.475.475,0,0,1-.18-.12.582.582,0,0,1-.12-.18.538.538,0,0,1-.045-.217.562.562,0,0,1,.165-.4.58.58,0,0,1,.795,0,.475.475,0,0,1,.12.18.538.538,0,0,1,.045.217.563.563,0,0,1-.562.563Z" transform="translate(-4.938 -0.815)" fill="#2c2e43"/>
  </g>
</svg>
