<svg xmlns="http://www.w3.org/2000/svg" width="51.199" height="28" viewBox="0 0 51.199 28">
  <g id="waiting-room" transform="translate(0 -67.347)">
    <g id="Group_7671" data-name="Group 7671" transform="translate(0.782 68.129)">
      <path id="Path_1545" data-name="Path 1545" d="M241.875,375.771l-1.786-1.269-1.9,1.269v5.515l1.886,1.474,1.8-1.474Z" transform="translate(-215.214 -359.187)" fill="#60709a" fill-rule="evenodd"/>
      <path id="Path_1546" data-name="Path 1546" d="M255.986,386.762h1.845v5.515h-1.845Z" transform="translate(-231.203 -369.984)" fill="#595959" fill-rule="evenodd"/>
      <path id="Path_1547" data-name="Path 1547" d="M409.164,375.771l-1.783-1.269-1.9,1.269v5.515l1.9,1.706,1.786-1.706Z" transform="translate(-366.088 -359.187)" fill="#60709a" fill-rule="evenodd"/>
      <path id="Path_1548" data-name="Path 1548" d="M423.277,386.762h1.842v5.515h-1.842Z" transform="translate(-382.043 -369.984)" fill="#595959" fill-rule="evenodd"/>
      <path id="Path_1549" data-name="Path 1549" d="M74.584,375.771,72.8,374.5l-1.9,1.269v5.515l1.842,1.588,1.845-1.588Z" transform="translate(-64.341 -359.187)" fill="#60709a" fill-rule="evenodd"/>
      <path id="Path_1551" data-name="Path 1551" d="M56.9,440.045H16.83a1.223,1.223,0,0,0-1.2,1.243v1.852a1.223,1.223,0,0,0,1.2,1.242H61.867a1.223,1.223,0,0,0,1.2-1.242v-1.852a1.223,1.223,0,0,0-1.2-1.243H56.9Z" transform="translate(-14.798 -417.946)" fill="#eee" fill-rule="evenodd"/>
      <path id="Path_1552" data-name="Path 1552" d="M39.711,217.056H30.667A1.762,1.762,0,0,0,29.01,218.9v11.364l6.444,2.447,5.914-2.447V218.9A1.764,1.764,0,0,0,39.711,217.056Z" transform="translate(-26.79 -217.056)" fill="#60709a" fill-rule="evenodd"/>
      <path id="Path_1553" data-name="Path 1553" d="M88.694,386.762h1.845v5.515H88.694Z" transform="translate(-80.296 -369.984)" fill="#595959" fill-rule="evenodd"/>
      <path id="Path_1555" data-name="Path 1555" d="M207,217.056h-9.04A1.762,1.762,0,0,0,196.3,218.9v11.364l6.444,2.447,5.91-2.447V218.9A1.762,1.762,0,0,0,207,217.056Z" transform="translate(-177.664 -217.056)" fill="#60709a" fill-rule="evenodd"/>
      <path id="Path_1557" data-name="Path 1557" d="M374.291,217.056h-9.04a1.762,1.762,0,0,0-1.657,1.843v11.364l6.444,2.447,5.911-2.447V218.9A1.762,1.762,0,0,0,374.291,217.056Z" transform="translate(-328.537 -217.056)" fill="#60709a" fill-rule="evenodd"/>
      <path id="Path_1559" data-name="Path 1559" d="M8.888,344.661H55.861a1.358,1.358,0,0,1,1.331,1.377v1.6a1.358,1.358,0,0,1-1.331,1.377H8.888a1.357,1.357,0,0,1-1.331-1.377v-1.6a1.357,1.357,0,0,1,1.331-1.377Z" transform="translate(-7.557 -332.016)" fill="#46496c" fill-rule="evenodd"/>
    </g>
    <path fill="#2c2e43" id="Path_1563" data-name="Path 1563" d="M49.111,222.259h-.06v-10.34a2.424,2.424,0,0,0-2.422-2.42h-8.6a2.424,2.424,0,0,0-2.422,2.42v10.34H32.322v-10.34A2.422,2.422,0,0,0,29.9,209.5H21.3a2.424,2.424,0,0,0-2.422,2.42v10.34H15.6v-10.34a2.424,2.424,0,0,0-2.422-2.42H4.567a2.424,2.424,0,0,0-2.422,2.42v10.34H2.088A2.089,2.089,0,0,0,0,224.346v1.549a2.089,2.089,0,0,0,2.088,2.086H6.334V231.8H2.762a1.957,1.957,0,0,0-1.954,1.956v1.789A1.957,1.957,0,0,0,2.762,237.5H23.711a.756.756,0,1,0,0-1.511H2.762a.45.45,0,0,1-.443-.445v-1.789a.45.45,0,0,1,.443-.445H47.921a.45.45,0,0,1,.443.445v1.789a.45.45,0,0,1-.443.445H27.174a.756.756,0,0,0,0,1.511H47.921a1.957,1.957,0,0,0,1.954-1.956v-1.789a1.957,1.957,0,0,0-1.954-1.956H44.862v-3.817h4.249a2.089,2.089,0,0,0,2.088-2.086v-1.549a2.089,2.089,0,0,0-2.088-2.086Zm-12-10.34a.911.911,0,0,1,.911-.909h8.6a.911.911,0,0,1,.911.909v10.34H37.114Zm-16.729,0a.911.911,0,0,1,.911-.909H29.9a.91.91,0,0,1,.908.909v10.34H20.385Zm-16.729,0a.911.911,0,0,1,.911-.909h8.607a.911.911,0,0,1,.911.909v10.34H3.657Zm4.189,16.061H9.9V231.8H7.845Zm18.78,0V231.8H24.574v-3.817Zm13.167,0V231.8H28.136v-3.817Zm3.559,3.817H41.3v-3.817h2.048Zm6.337-5.9a.576.576,0,0,1-.576.575H19.25a.756.756,0,1,0,0,1.511h3.813V231.8H11.407v-3.817h4.2a.756.756,0,1,0,0-1.511H2.088a.576.576,0,0,1-.576-.575v-1.549a.576.576,0,0,1,.576-.575H49.111a.576.576,0,0,1,.576.575Z" transform="translate(0 -142.152)"/>
  </g>
</svg>
