<svg xmlns="http://www.w3.org/2000/svg" width="20" height="20" viewBox="0 0 20 20">
  <g id="Group_7702" data-name="Group 7702" transform="translate(-609.553 -476.582)">
    <g id="Group_7700" data-name="Group 7700" transform="translate(609.553 476.582)">
      <g id="Group_7531" data-name="Group 7531" transform="translate(0 0)">
        <circle id="Ellipse_17" data-name="Ellipse 17" cx="9.978" cy="9.978" r="9.978" transform="translate(0.044)" fill="none"/>
        <path id="Path_1489" data-name="Path 1489" d="M100.961,91a9.961,9.961,0,1,0,9.961,9.961A9.973,9.973,0,0,0,100.961,91Zm6.365,15.045-.6-.6a.906.906,0,0,0-1.281,1.281l.6.6a8.112,8.112,0,0,1-4.178,1.735V108.2a.906.906,0,1,0-1.811,0v.855a8.112,8.112,0,0,1-4.178-1.735l.6-.6a.906.906,0,1,0-1.281-1.281l-.6.6a8.111,8.111,0,0,1-1.735-4.178h.855a.906.906,0,1,0,0-1.811h-.855A8.112,8.112,0,0,1,94.6,95.877l.6.6A.906.906,0,0,0,96.479,95.2l-.6-.6a8.112,8.112,0,0,1,4.178-1.735v.855a.906.906,0,1,0,1.811,0v-.855a8.112,8.112,0,0,1,4.178,1.735l-.6.6a.906.906,0,1,0,1.281,1.281l.6-.6a8.111,8.111,0,0,1,1.735,4.178H108.2a.9.9,0,1,0,0,1.8h.855A8.132,8.132,0,0,1,107.325,106.045Z" transform="translate(-91 -90.921)" fill="#2c2e43"/>
      </g>
    </g>
    <g id="Group_7701" data-name="Group 7701" transform="translate(618.61 482.093)">
      <g id="Group_7533" data-name="Group 7533">
        <path id="Path_1490" data-name="Path 1490" d="M244.357,186.7l-1.546-1.546v-3.247a.906.906,0,1,0-1.811,0v3.622a.905.905,0,0,0,.265.64l1.811,1.811a.905.905,0,1,0,1.281-1.281Z" transform="translate(-241 -181)" fill="#60709a"/>
      </g>
    </g>
  </g>
</svg>
